Coordinates
version=1
nRows=9
nColumns=36
inDegrees=yes

Units are S.I. units (second, meters, Newtons, ...)
If the header above contains a line with 'inDegrees', this indicates whether rotational values are in degrees (yes) or radians (no).

endheader
time	pelvis_tilt	pelvis_list	pelvis_rotation	pelvis_tx	pelvis_ty	pelvis_tz	hip_flexion_r	hip_adduction_r	hip_rotation_r	knee_angle_r	knee_angle_r_beta	ankle_angle_r	subtalar_angle_r	mtp_angle_r	hip_flexion_l	hip_adduction_l	hip_rotation_l	knee_angle_l	knee_angle_l_beta	ankle_angle_l	subtalar_angle_l	mtp_angle_l	lumbar_extension	lumbar_bending	lumbar_rotation	arm_flex_r	arm_add_r	arm_rot_r	elbow_flex_r	pro_sup_r	arm_flex_l	arm_add_l	arm_rot_l	elbow_flex_l	pro_sup_l
      3.71666670	     -7.59137802	      2.70408025	     -2.40710127	     -0.15485510	      0.94178577	      0.09151644	      7.70453066	     -6.53619612	      1.70164567	      0.43304472	      0.00755806	      3.56492336	     -3.66851816	     -7.49999987	      6.62178437	     -5.25321004	    -11.08022833	      0.31779150	      0.00554651	      5.36713142	      1.11041047	     -7.49999987	      0.17428587	     -1.90277658	      2.12318135	     69.45451668	     13.35996480	     67.89305220	    117.84772017	     92.52184649	     51.44057158	     10.56394267	     55.20745507	    124.48588842	     70.76615011
      3.73333330	     -7.60790237	      2.77199960	     -2.38885051	     -0.15533695	      0.94109886	      0.09176584	      7.78207667	     -6.60993149	      1.96935990	      0.44703931	      0.00780231	      3.45600460	     -4.08742525	     -7.49999987	      6.69775476	     -5.17442477	    -11.19722551	      0.32936199	      0.00574845	      5.42075496	      1.31668415	     -7.49999987	      0.08855166	     -2.01759493	      2.18676574	     69.55026641	     13.36230722	     67.52855048	    117.64931988	     98.10127046	     51.49827883	     10.50248637	     54.87850513	    124.28674425	     72.60416646
      3.75000000	     -7.57623768	      2.80229708	     -2.30919962	     -0.15513937	      0.94128098	      0.09167242	      7.77869070	     -6.66603767	      1.99205045	      0.45622167	      0.00796257	      3.46057892	     -4.17250763	     -7.49999987	      6.71966338	     -5.12617396	    -11.12937914	      0.34096774	      0.00595101	      5.33002168	      1.23609149	     -7.49999987	     -0.07038556	     -2.06814808	      2.09870689	     69.65816223	     13.35763983	     67.58378236	    117.54718070	     96.91046756	     51.54002615	     10.51845937	     54.59819993	    124.21875595	     72.12509106
      3.76666670	     -7.50378427	      2.81560013	     -2.21785291	     -0.15512736	      0.94115798	      0.09127961	      7.71352838	     -6.71115220	      1.94679867	      0.47425543	      0.00827732	      3.48865417	     -4.21268415	     -7.49999987	      6.69586893	     -5.08515718	    -10.78934603	      0.34614535	      0.00604138	      5.14154255	      0.79423369	     -7.49999987	     -0.21622784	     -2.06342810	      2.01915584	     69.72188652	     13.37423849	     67.57235001	    117.46777650	     95.37328786	     51.59483095	     10.49613401	     54.29678786	    123.93257131	     71.65271990
      3.78333330	     -7.48720530	      2.85117436	     -2.18910088	     -0.15644115	      0.94038513	      0.09204792	      7.73647811	     -6.74404464	      2.02495497	      0.49683725	      0.00867145	      3.52605732	     -4.34590851	     -7.49999987	      6.73303408	     -5.05571646	    -10.94197090	      0.36098296	      0.00630034	      5.27251303	      1.13098553	     -7.49999987	     -0.30384492	     -2.14497690	      1.99628714	     69.73781155	     13.35053471	     67.65117990	    117.72760866	     94.97186766	     51.55530405	     10.29370386	     54.10065583	    124.01644154	     71.37945775
      3.80000000	     -7.49068459	      2.86798588	     -2.25820245	     -0.15575403	      0.94267573	      0.09208701	      7.76586602	     -6.74937923	      2.06636627	      0.53405835	      0.00932108	      3.43514800	     -4.37138922	     -7.49999987	      6.71517151	     -5.08512930	    -11.00804864	      0.37152060	      0.00648426	      5.19584690	      1.22377947	     -7.49999987	     -0.27141743	     -2.21107603	      1.92039839	     69.64005890	     13.43690238	     67.67437591	    117.92895924	     98.26501277	     51.43254253	     10.30374282	     54.10774581	    124.00547483	     72.84234483
      3.81666670	     -7.41136811	      2.86180043	     -2.33992633	     -0.15591863	      0.93987889	      0.09207049	      7.71409787	     -6.71876835	      2.20213568	      0.58689933	      0.01024333	      3.35804860	     -4.62677163	     -7.49999987	      6.60581318	     -5.10637774	    -11.06024804	      0.38174741	      0.00666275	      5.25217369	      1.21958811	     -7.49999987	     -0.32111270	     -2.24380967	      1.84121526	     69.70955622	     13.55208964	     67.81899439	    118.17512538	     98.04365655	     51.53191320	     10.30386969	     53.99214041	    123.74190394	     72.85355468
      3.83333330	     -7.31250395	      2.87743707	     -2.32139295	     -0.15785093	      0.94201316	      0.09223625	      7.66253062	     -6.73974289	      1.93675796	      0.62005834	      0.01082206	      3.53597898	     -4.17180189	     -7.49999987	      6.53986604	     -5.09294032	    -10.80981325	      0.38441242	      0.00670926	      5.00943553	      0.72452138	     -7.49999987	     -0.54979500	     -2.30796345	      1.60217105	     69.79011158	     13.61008773	     68.10957197	    118.32238564	     94.18102516	     51.62457915	      9.97907843	     53.78672291	    123.51826831	     71.67693311
      3.85000000	     -7.34449087	      2.86843484	     -2.34088980	     -0.15665882	      0.93996175	      0.09322460	      7.71942114	     -6.69135326	      2.28353454	      0.66867005	      0.01167049	      3.36542365	     -4.75676896	     -7.49999987	      6.58385773	     -5.13788015	    -10.97213305	      0.40411434	      0.00705313	      5.18295926	      1.04236584	     -7.49999987	     -0.49326795	     -2.39529397	      1.66520262	     69.75389767	     13.49375821	     67.79183841	    118.29500834	     98.38523271	     51.63683816	      9.91608843	     53.58478551	    123.45940163	     72.78765883
